<svg xmlns="http://www.w3.org/2000/svg" viewBox="0 0 24 24" fill="#fff"><path d="M12 2a10 10 0 1 0 0 20 10 10 0 0 0 0-20Zm6.9 6h-2.93a15.6 15.6 0 0 0-1.38-3.68A8.03 8.03 0 0 1 18.9 8ZM12 4.04c.83 1.2 1.48 2.53 1.91 3.96h-3.82c.43-1.43 1.08-2.76 1.91-3.96ZM4.26 14a8.09 8.09 0 0 1 0-4h3.35a16.6 16.6 0 0 0 0 4H4.26Zm.84 2h2.93c.32 1.27.79 2.5 1.38 3.68A7.99 7.99 0 0 1 5.1 16Zm2.93-8H5.1a7.99 7.99 0 0 1 4.31-3.68A15.6 15.6 0 0 0 8.03 8ZM12 19.96c-.83-1.2-1.48-2.53-1.91-3.96h3.82c-.43 1.43-1.08 2.76-1.91 3.96ZM14.34 14H9.66a14.8 14.8 0 0 1 0-4h4.68a14.8 14.8 0 0 1 0 4Zm.25 5.68c.59-1.18 1.06-2.41 1.38-3.68h2.93a7.99 7.99 0 0 1-4.31 3.68ZM16.36 14a16.6 16.6 0 0 0 0-4h3.35a8.09 8.09 0 0 1 0 4h-3.35Z"/></svg>